<svg width="24" height="29" viewBox="0 0 24 29" fill="none" xmlns="http://www.w3.org/2000/svg">
<path d="M24 7.25V25.375C24 25.8753 23.9038 26.3426 23.7115 26.7769C23.5192 27.2111 23.2548 27.5934 22.9183 27.9238C22.5817 28.2542 22.1875 28.5138 21.7356 28.7026C21.2837 28.8914 20.8077 28.9906 20.3077 29H3.69231C3.18269 29 2.70673 28.9056 2.26442 28.7168C1.82212 28.528 1.43269 28.2684 1.09615 27.938C0.759615 27.6076 0.495192 27.2253 0.302885 26.791C0.110577 26.3568 0.00961538 25.8848 0 25.375V7.25H3.69231V5.4375C3.69231 4.69173 3.83654 3.98844 4.125 3.32764C4.41346 2.66683 4.8125 2.09098 5.32212 1.6001C5.83173 1.10921 6.41827 0.722168 7.08173 0.438965C7.74519 0.155762 8.46154 0.0094401 9.23077 0C10.2308 0 11.1587 0.245443 12.0144 0.736328C12.8702 0.245443 13.7885 0 14.7692 0C15.5288 0 16.2452 0.141602 16.9183 0.424805C17.5913 0.708008 18.1779 1.09977 18.6779 1.6001C19.1779 2.10042 19.5721 2.67627 19.8606 3.32764C20.149 3.979 20.2981 4.68229 20.3077 5.4375V7.25H24ZM18.4615 5.4375C18.4615 4.94661 18.3654 4.47933 18.1731 4.03564C17.9808 3.59196 17.7163 3.20964 17.3798 2.88867C17.0433 2.56771 16.649 2.30811 16.1971 2.10986C15.7452 1.91162 15.2692 1.8125 14.7692 1.8125C14.3365 1.8125 13.9279 1.8833 13.5433 2.0249C13.8221 2.36475 14.0433 2.69987 14.2067 3.03027C14.3702 3.36068 14.4904 3.69108 14.5673 4.02148C14.6442 4.35189 14.6971 4.68701 14.726 5.02686C14.7548 5.3667 14.7692 5.73014 14.7692 6.11719V7.25H18.4615V5.4375ZM5.53846 7.25H12.9231V5.4375C12.9231 4.94661 12.8269 4.47933 12.6346 4.03564C12.4423 3.59196 12.1779 3.20964 11.8413 2.88867C11.5048 2.56771 11.1106 2.30811 10.6587 2.10986C10.2067 1.91162 9.73077 1.8125 9.23077 1.8125C8.72115 1.8125 8.24519 1.9069 7.80288 2.0957C7.36058 2.28451 6.97115 2.54411 6.63462 2.87451C6.29808 3.20492 6.03365 3.59196 5.84135 4.03564C5.64904 4.47933 5.54808 4.94661 5.53846 5.4375V7.25ZM17.1058 27.1875C16.7788 26.6211 16.6154 26.0169 16.6154 25.375V9.0625H1.84615V25.375C1.84615 25.6299 1.89423 25.8659 1.99038 26.083C2.08654 26.3001 2.21635 26.4889 2.37981 26.6494C2.54327 26.8099 2.74038 26.9421 2.97115 27.0459C3.20192 27.1497 3.44231 27.1969 3.69231 27.1875H17.1058ZM22.1538 9.0625H18.4615V25.375C18.4615 25.6299 18.5096 25.8659 18.6058 26.083C18.7019 26.3001 18.8317 26.4889 18.9952 26.6494C19.1587 26.8099 19.3558 26.9421 19.5865 27.0459C19.8173 27.1497 20.0577 27.1969 20.3077 27.1875C20.5673 27.1875 20.8077 27.1403 21.0288 27.0459C21.25 26.9515 21.4423 26.8241 21.6058 26.6636C21.7692 26.5031 21.9038 26.3096 22.0096 26.083C22.1154 25.8564 22.1635 25.6204 22.1538 25.375V9.0625Z" fill="black"/>
</svg>
