<svg width="21" height="23" viewBox="0 0 21 23" fill="none" xmlns="http://www.w3.org/2000/svg">
<path d="M4.66667 23V16.1H2.8C2.02222 16.1 1.36111 15.8317 0.816667 15.295C0.272222 14.7583 0 14.1067 0 13.34C0 12.7842 0.155556 12.2716 0.466667 11.8024C0.777778 11.3332 1.18611 10.9833 1.69167 10.7525L9.33333 7.4175V6.67C8.63333 6.42083 8.06944 6.00415 7.64167 5.41995C7.21389 4.83575 7 4.1791 7 3.45C7 2.49167 7.34028 1.67708 8.02083 1.00625C8.70139 0.335417 9.52778 0 10.5 0C11.4722 0 12.2986 0.335417 12.9792 1.00625C13.6597 1.67708 14 2.49167 14 3.45H11.6667C11.6667 3.12417 11.5547 2.85123 11.3307 2.6312C11.1067 2.41117 10.8298 2.30077 10.5 2.3C10.1702 2.29923 9.89333 2.40963 9.66933 2.6312C9.44533 2.85277 9.33333 3.1257 9.33333 3.45C9.33333 3.7743 9.44533 4.04762 9.66933 4.26995C9.89333 4.49228 10.1702 4.6023 10.5 4.6C10.8298 4.5977 11.1071 4.7081 11.3318 4.9312C11.5566 5.1543 11.6682 5.42723 11.6667 5.75V7.4175L19.3083 10.7525C19.8139 10.9825 20.2222 11.3325 20.5333 11.8024C20.8444 12.2724 21 12.7849 21 13.34C21 14.1067 20.7278 14.7583 20.1833 15.295C19.6389 15.8317 18.9778 16.1 18.2 16.1H16.3333V23H4.66667ZM2.8 13.8H4.66667V12.65H16.3333V13.8H18.2C18.3361 13.8 18.4481 13.7521 18.536 13.6562C18.6239 13.5604 18.6674 13.4358 18.6667 13.2825C18.6667 13.1867 18.6426 13.105 18.5943 13.0375C18.5461 12.9701 18.473 12.9176 18.375 12.88L10.5 9.43L2.625 12.88C2.52778 12.9183 2.45506 12.9712 2.40683 13.0387C2.35861 13.1062 2.33411 13.1874 2.33333 13.2825C2.33333 13.4358 2.37728 13.5604 2.46517 13.6562C2.55306 13.7521 2.66467 13.8 2.8 13.8Z" fill="black"/>
</svg>
