<svg width="27" height="16" viewBox="0 0 27 16" fill="none" xmlns="http://www.w3.org/2000/svg">
<path d="M0 16V12C0 10.5333 0.52875 9.27778 1.58625 8.23333C2.64375 7.18889 3.915 6.66667 5.4 6.66667H17.55V5.33333C17.55 4.95556 17.4204 4.63911 17.1612 4.384C16.902 4.12889 16.5816 4.00089 16.2 4H10.8C10.4175 4 10.0971 4.128 9.8388 4.384C9.5805 4.64 9.4509 4.95644 9.45 5.33333H6.75C6.75 4.22222 7.14375 3.27778 7.93125 2.5C8.71875 1.72222 9.675 1.33333 10.8 1.33333H16.2C17.325 1.33333 18.2813 1.72222 19.0688 2.5C19.8563 3.27778 20.25 4.22222 20.25 5.33333V10.6667C20.6325 10.6667 20.9533 10.5387 21.2125 10.2827C21.4717 10.0267 21.6009 9.71022 21.6 9.33333V4C21.6 2.88889 21.9938 1.94444 22.7813 1.16667C23.5688 0.388889 24.525 0 25.65 0H27V2.66667H25.65C25.2675 2.66667 24.9471 2.79467 24.6888 3.05067C24.4305 3.30667 24.3009 3.62311 24.3 4V9.33333C24.3 10.4444 23.9063 11.3889 23.1188 12.1667C22.3313 12.9444 21.375 13.3333 20.25 13.3333V16H0Z" fill="black"/>
</svg>
