<svg width="20" height="21" viewBox="0 0 20 21" fill="none" xmlns="http://www.w3.org/2000/svg">
<path d="M3.00703 17.0318H17.007M18.993 15.0548C18.996 14.79 18.9464 14.5272 18.847 14.2818L11.747 2.03175C11.5741 1.71915 11.3205 1.45858 11.0128 1.27714C10.705 1.0957 10.3543 1 9.99703 1C9.63977 1 9.28903 1.0957 8.98127 1.27714C8.67352 1.45858 8.41998 1.71915 8.24703 2.03175L7.43203 3.43675M5.94403 6.00475L1.14703 14.2818C1.02697 14.5773 0.979359 14.8973 1.00818 15.2151C1.03699 15.5328 1.1414 15.839 1.31268 16.1082C1.48396 16.3773 1.71714 16.6016 1.99275 16.7623C2.26837 16.9229 2.57842 17.0153 2.89703 17.0318M1.00703 1.03175L19.007 19.0318" stroke="black" stroke-width="2" stroke-linecap="round" stroke-linejoin="round"/>
</svg>
