<svg width="23" height="23" viewBox="0 0 23 23" fill="none" xmlns="http://www.w3.org/2000/svg">
<path d="M2.5 5.5C2.5 4.70435 2.81607 3.94129 3.37868 3.37868C3.94129 2.81607 4.70435 2.5 5.5 2.5H17.5C18.2956 2.5 19.0587 2.81607 19.6213 3.37868C20.1839 3.94129 20.5 4.70435 20.5 5.5V17.5C20.5 18.2956 20.1839 19.0587 19.6213 19.6213C19.0587 20.1839 18.2956 20.5 17.5 20.5H5.5C4.70435 20.5 3.94129 20.1839 3.37868 19.6213C2.81607 19.0587 2.5 18.2956 2.5 17.5V5.5Z" stroke="black" stroke-width="2" stroke-linecap="round" stroke-linejoin="round"/>
<path d="M5.5 11.5C5.5 13.0913 6.13214 14.6174 7.25736 15.7426C8.38258 16.8679 9.9087 17.5 11.5 17.5C13.0913 17.5 14.6174 16.8679 15.7426 15.7426C16.8679 14.6174 17.5 13.0913 17.5 11.5C17.5 9.9087 16.8679 8.38258 15.7426 7.25736C14.6174 6.13214 13.0913 5.5 11.5 5.5C9.9087 5.5 8.38258 6.13214 7.25736 7.25736C6.13214 8.38258 5.5 9.9087 5.5 11.5Z" stroke="black" stroke-width="2" stroke-linecap="round" stroke-linejoin="round"/>
<path d="M1 1L22 22" stroke="black" stroke-width="2" stroke-linecap="round"/>
</svg>
