<svg width="20" height="20" viewBox="0 0 20 20" fill="none" xmlns="http://www.w3.org/2000/svg">
<path d="M1 4L2.721 14.329C2.79888 14.796 3.0399 15.2202 3.40118 15.5262C3.76245 15.8322 4.22056 16.0001 4.694 16H15.306C15.5153 15.9993 15.7153 15.9687 15.906 15.908M17.427 13.436L19 4" stroke="black" stroke-width="2" stroke-linecap="round" stroke-linejoin="round"/>
<path d="M1.486 6.965C1.654 6.98567 1.82533 6.99733 2 7C2.79 7.009 3.539 6.822 4 6.5C4.461 6.18 5.21 5.993 6 6M10.92 6.919C11.348 6.836 11.725 6.692 12 6.501C12.461 6.179 13.21 5.993 14 6.001C14.79 5.993 15.539 6.179 16 6.501C16.461 6.821 17.21 7.009 18 7.001C18.17 7.001 18.339 6.986 18.503 6.966M1 1L19 19" stroke="black" stroke-width="2" stroke-linecap="round" stroke-linejoin="round"/>
</svg>
