<svg width="79" height="25" viewBox="0 0 79 25" fill="none" xmlns="http://www.w3.org/2000/svg">
<path d="M12.088 8.192L12.28 8C12.3653 8.04267 12.472 8.17067 12.6 8.384C12.7493 8.59733 12.8347 8.78933 12.856 8.96C12.8987 9.13067 12.92 9.29067 12.92 9.44C12.92 10.016 12.792 10.6027 12.536 11.2L6.392 24H6.072L0.12 8H2.36L7.256 21.248L12.216 11.2C12.472 10.752 12.6 10.2187 12.6 9.6C12.6 8.98133 12.4293 8.512 12.088 8.192ZM27.9023 24C26.4516 24 25.4596 23.7227 24.9263 23.168C24.4356 22.6987 24.1903 22.2933 24.1903 21.952V21.28C23.1449 23.1787 21.4703 24.128 19.1663 24.128C16.4783 24.128 14.9529 22.912 14.5903 20.48C14.5476 20.224 14.5263 19.968 14.5263 19.712C14.5263 19.4347 14.5689 19.136 14.6543 18.816C14.7396 18.496 14.9849 18.144 15.3903 17.76C16.2009 16.992 17.9823 16.5227 20.7343 16.352C21.4169 16.288 22.0463 16.256 22.6223 16.256C23.1983 16.256 23.7209 16.2773 24.1903 16.32V11.008C24.1476 10.9867 24.1476 10.8907 24.1903 10.72C24.2329 10.528 24.1903 10.2933 24.0623 10.016C23.9556 9.71733 23.8063 9.42933 23.6143 9.152C23.4223 8.87467 23.0809 8.64 22.5903 8.448C22.0996 8.23467 21.4596 8.128 20.6703 8.128C19.8809 8.128 18.9529 8.27733 17.8863 8.576C16.8409 8.85333 16.0729 9.13067 15.5823 9.408L15.4543 9.184C17.3529 8.30933 19.2836 7.872 21.2463 7.872C23.4436 7.872 24.8943 8.26667 25.5983 9.056C26.1529 9.67467 26.4303 10.3253 26.4303 11.008V21.728C26.4303 22.3467 26.5476 22.8267 26.7823 23.168C27.0383 23.488 27.2943 23.6587 27.5503 23.68L27.9023 23.744H28.8943V24H27.9023ZM19.6783 23.872C20.8089 23.872 21.8223 23.488 22.7183 22.72C23.6356 21.9307 24.1263 21.1733 24.1903 20.448V16.576C23.6143 16.5333 23.0276 16.512 22.4303 16.512C21.8543 16.512 21.2783 16.544 20.7023 16.608C19.0809 16.8 18.0249 17.1627 17.5343 17.696C17.0436 18.2293 16.7983 18.9653 16.7983 19.904C16.7983 20.0747 16.8089 20.2667 16.8303 20.48C17.0223 22.7413 17.9716 23.872 19.6783 23.872ZM35.344 24C33.4667 24 32.2827 23.5093 31.792 22.528C31.6853 22.3147 31.632 22.1227 31.632 21.952V0.0319996H33.872V21.728C33.872 22.3467 33.9893 22.8267 34.224 23.168C34.48 23.488 34.736 23.6587 34.992 23.68L35.344 23.744H36.336V24H35.344ZM44.739 24.128C42.499 24.128 40.675 23.488 39.267 22.208C37.859 20.928 37.155 18.9547 37.155 16.288C37.155 13.6213 37.8803 11.552 39.331 10.08C40.803 8.608 42.659 7.872 44.899 7.872C47.1603 7.872 48.995 8.512 50.403 9.792C51.811 11.072 52.515 13.0453 52.515 15.712C52.515 18.3787 51.779 20.448 50.307 21.92C48.8563 23.392 47.0003 24.128 44.739 24.128ZM44.963 8.128C43.3417 8.128 41.9977 8.85333 40.931 10.304C39.8643 11.7333 39.331 13.7387 39.331 16.32C39.331 18.88 39.8217 20.7787 40.803 22.016C41.7843 23.2533 43.0857 23.872 44.707 23.872C46.3283 23.872 47.6723 23.1573 48.739 21.728C49.8057 20.2773 50.339 18.272 50.339 15.712C50.339 13.1307 49.8483 11.2213 48.867 9.984C47.8857 8.74667 46.5843 8.128 44.963 8.128ZM60.5483 9.376V8.704C59.5883 9.088 58.7136 9.86667 57.9243 11.04C57.1349 12.192 56.7189 13.28 56.6763 14.304V24H54.4363V8H56.6763V13.088C57.0176 11.8507 57.6683 10.688 58.6283 9.6C59.5883 8.49067 60.6763 7.91467 61.8923 7.872H62.0203C62.4469 7.872 62.7989 8.02133 63.0763 8.32C63.3749 8.59733 63.5243 8.94933 63.5243 9.376C63.5243 9.80267 63.3749 10.1547 63.0763 10.432C62.7989 10.7093 62.4469 10.848 62.0203 10.848C61.5936 10.848 61.2416 10.7093 60.9643 10.432C60.6869 10.1547 60.5483 9.80267 60.5483 9.376ZM67.1435 16.192C67.1435 18.8373 67.6022 20.7787 68.5195 22.016C69.4582 23.2533 70.6848 23.872 72.1995 23.872C74.3328 23.872 76.2315 23.552 77.8955 22.912L77.9915 23.136C76.2848 23.7973 74.3542 24.128 72.1995 24.128C70.0662 24.128 68.3275 23.488 66.9835 22.208C65.6395 20.928 64.9675 18.9547 64.9675 16.288C64.9675 13.6213 65.6715 11.552 67.0795 10.08C68.4875 8.608 70.2795 7.872 72.4555 7.872C74.2048 7.872 75.6768 8.39467 76.8715 9.44C78.0662 10.4853 78.6635 12.032 78.6635 14.08C78.6635 14.1867 78.6635 14.2933 78.6635 14.4H67.2395C67.1755 14.976 67.1435 15.5733 67.1435 16.192ZM76.4875 14.144C76.4662 12.096 76.0715 10.5813 75.3035 9.6C74.5355 8.61867 73.5435 8.128 72.3275 8.128C71.1115 8.128 70.0235 8.66133 69.0635 9.728C68.1248 10.7947 67.5275 12.2667 67.2715 14.144H76.4875Z" fill="white"/>
</svg>
