<svg width="21" height="21" viewBox="0 0 21 21" fill="none" xmlns="http://www.w3.org/2000/svg">
<path d="M17.339 12.6907V17.1307C17.3388 17.759 17.0891 18.3614 16.6449 18.8056C16.2007 19.2498 15.5983 19.4995 14.97 19.4997H3.36904C3.0568 19.4996 2.74765 19.4378 2.45938 19.3178C2.1711 19.1978 1.90937 19.0221 1.68923 18.8006C1.46909 18.5792 1.29488 18.3164 1.17661 18.0275C1.05833 17.7385 0.998329 17.429 1.00004 17.1167V5.52873C0.998184 5.21698 1.05822 4.90796 1.17666 4.61958C1.29511 4.3312 1.46961 4.06919 1.69006 3.84875C1.9105 3.6283 2.17251 3.4538 2.46089 3.33535C2.74927 3.21691 3.05829 3.15688 3.37004 3.15873H7.80904" stroke="black" stroke-width="1.5" stroke-linecap="round" stroke-linejoin="round"/>
<path d="M17.339 7.24486L13.254 3.15886M5.08405 14.0529V11.8879C5.08605 11.5309 5.22805 11.1879 5.47905 10.9349L15.011 1.40286C15.1377 1.27521 15.2883 1.17389 15.4543 1.10474C15.6202 1.0356 15.7983 1 15.978 1C16.1578 1 16.3359 1.0356 16.5018 1.10474C16.6678 1.17389 16.8184 1.27521 16.945 1.40286L19.096 3.55386C19.2239 3.68034 19.3255 3.83093 19.3948 3.99692C19.4641 4.1629 19.4997 4.34099 19.4997 4.52086C19.4997 4.70073 19.4641 4.87881 19.3948 5.0448C19.3255 5.21079 19.2239 5.36138 19.096 5.48786L9.56404 15.0199C9.31052 15.2715 8.96824 15.4134 8.61105 15.4149H6.44604C6.08482 15.4149 5.73839 15.2714 5.48297 15.0159C5.22754 14.7605 5.08405 14.4141 5.08405 14.0529Z" stroke="black" stroke-width="1.5" stroke-linecap="round" stroke-linejoin="round"/>
</svg>
