<svg width="20" height="20" viewBox="0 0 20 20" fill="none" xmlns="http://www.w3.org/2000/svg">
<path d="M18.3333 0H1.66667C1.22464 0 0.800716 0.175595 0.488155 0.488155C0.175595 0.800716 0 1.22464 0 1.66667V18.3333C0 18.7754 0.175595 19.1993 0.488155 19.5118C0.800716 19.8244 1.22464 20 1.66667 20H18.3333C18.7754 20 19.1993 19.8244 19.5118 19.5118C19.8244 19.1993 20 18.7754 20 18.3333V1.66667C20 1.22464 19.8244 0.800716 19.5118 0.488155C19.1993 0.175595 18.7754 0 18.3333 0ZM15.8333 10.8333H10.8333V15.8333C10.8333 16.0543 10.7455 16.2663 10.5893 16.4226C10.433 16.5789 10.221 16.6667 10 16.6667C9.77899 16.6667 9.56702 16.5789 9.41074 16.4226C9.25446 16.2663 9.16667 16.0543 9.16667 15.8333V10.8333H4.16667C3.94565 10.8333 3.73369 10.7455 3.57741 10.5893C3.42113 10.433 3.33333 10.221 3.33333 10C3.33333 9.77899 3.42113 9.56702 3.57741 9.41074C3.73369 9.25446 3.94565 9.16667 4.16667 9.16667H9.16667V4.16667C9.16667 3.94565 9.25446 3.73369 9.41074 3.57741C9.56702 3.42113 9.77899 3.33333 10 3.33333C10.221 3.33333 10.433 3.42113 10.5893 3.57741C10.7455 3.73369 10.8333 3.94565 10.8333 4.16667V9.16667H15.8333C16.0543 9.16667 16.2663 9.25446 16.4226 9.41074C16.5789 9.56702 16.6667 9.77899 16.6667 10C16.6667 10.221 16.5789 10.433 16.4226 10.5893C16.2663 10.7455 16.0543 10.8333 15.8333 10.8333Z" fill="#4E5B83"/>
</svg>
